<?xml version="1.0" encoding="utf-8"?>
<!-- Generator: Adobe Illustrator 22.0.1, SVG Export Plug-In . SVG Version: 6.00 Build 0)  -->
<svg version="1.0" id="Capa_1" xmlns="http://www.w3.org/2000/svg" xmlns:xlink="http://www.w3.org/1999/xlink" x="0px" y="0px"
	 viewBox="0 0 76.9 66" style="enable-background:new 0 0 76.9 66;" xml:space="preserve">
<style type="text/css">
	.st0{fill:#49484F;}
	.st1{fill:#52489C;}
</style>
<g>
	<g>
		<path class="st0" d="M10,10h11.8v3.7h-8.1v2H20v3.7h-6.4v5.7H10V10z"/>
		<path class="st0" d="M23,32.8c0,2.2,1.8,4,4,4c1.1,0,2.1-0.4,2.9-1.2l2.6,2.5c-1.5,1.5-3.4,2.3-5.5,2.3c-4.2,0-7.7-3.4-7.7-7.7
			c0-4.2,3.4-7.7,7.7-7.7c2.2,0,4.4,1,5.8,2.7l-2.8,2.4c-0.8-0.9-1.9-1.4-3.1-1.4C24.8,28.7,23,30.5,23,32.8z"/>
		<path class="st0" d="M48.3,19.6c0,4.3-3.4,7.7-7.7,7.7c-4.2,0-7.7-3.4-7.7-7.7c0-4.2,3.5-7.7,7.7-7.7
			C44.8,11.9,48.3,15.4,48.3,19.6z"/>
		<path class="st0" d="M44.2,50h8.3v3.7h-12V38.6h3.7V50z"/>
		<path class="st0" d="M57.2,42.4L55.1,37v5.4h-3.7v-15h3.8l3.9,10l4-10h3.8v15h-3.7V37l-2.1,5.4H57.2z"/>
	</g>
	<path class="st1" d="M64.1,54.6c0,0.8-0.6,1.4-1.4,1.4c-0.8,0-1.4-0.6-1.4-1.4c0-0.8,0.6-1.4,1.4-1.4
		C63.5,53.2,64.1,53.8,64.1,54.6z"/>
</g>
</svg>
